<svg width="30" height="24" viewBox="0 0 30 24" fill="none" xmlns="http://www.w3.org/2000/svg">
<path fill-rule="evenodd" clip-rule="evenodd" d="M3.39844 0C1.52153 0 0 1.5503 0 3.46269V20.5373C0 22.4497 1.52153 24 3.39844 24H26.6016C28.4785 24 30 22.4497 30 20.5373V3.46269C30 1.5503 28.4785 0 26.6016 0H3.39844ZM7.66484 6.25851C7.30392 5.83548 6.67477 5.79065 6.25957 6.15839C5.84438 6.52613 5.8004 7.16717 6.16131 7.59022L9.44099 11.4344L6.16131 15.2786C5.8004 15.7016 5.84438 16.3426 6.25957 16.7104C6.67477 17.0781 7.30392 17.0333 7.66484 16.6102L11.4893 12.1275C11.6597 11.9278 11.7398 11.6796 11.7333 11.4344C11.7398 11.1892 11.6597 10.9409 11.4893 10.7412L7.66484 6.25851ZM12.3633 17.6716C11.8131 17.6716 11.3672 18.126 11.3672 18.6866C11.3672 19.2471 11.8131 19.7015 12.3633 19.7015H19.9805C20.5306 19.7015 20.9766 19.2471 20.9766 18.6866C20.9766 18.126 20.5306 17.6716 19.9805 17.6716H12.3633Z" fill="white"/>
</svg>
