<svg width="25" height="20" viewBox="0 0 25 20" fill="none" xmlns="http://www.w3.org/2000/svg">
<path fill-rule="evenodd" clip-rule="evenodd" d="M2.83203 0C1.26795 0 0 1.29192 0 2.88557V17.1144C0 18.7081 1.26795 20 2.83203 20H22.168C23.7321 20 25 18.7081 25 17.1144V2.88557C25 1.29192 23.7321 0 22.168 0H2.83203ZM6.38736 5.21543C6.0866 4.8629 5.56231 4.82554 5.21631 5.13199C4.87032 5.43844 4.83366 5.97265 5.13443 6.32518L7.86749 9.52865L5.13443 12.7321C4.83366 13.0847 4.87032 13.6189 5.21631 13.9253C5.56231 14.2318 6.0866 14.1944 6.38736 13.8419L9.57442 10.1063C9.7164 9.93986 9.78318 9.73298 9.77774 9.52866C9.78318 9.32435 9.7164 9.11745 9.57442 8.95103L6.38736 5.21543ZM10.3027 14.7264C9.84429 14.7264 9.47266 15.105 9.47266 15.5721C9.47266 16.0392 9.84429 16.4179 10.3027 16.4179H16.6504C17.1088 16.4179 17.4805 16.0392 17.4805 15.5721C17.4805 15.105 17.1088 14.7264 16.6504 14.7264H10.3027Z" fill="white"/>
</svg>
