<svg width="24" height="24" viewBox="0 0 24 24" fill="none" xmlns="http://www.w3.org/2000/svg">
<path d="M23.1938 5.71218C23.1364 5.57568 23.0399 5.45922 22.9164 5.37747C22.793 5.29572 22.6481 5.25235 22.5 5.25281H19.65C19.308 4.65611 18.8332 4.14614 18.2625 3.7624C17.6917 3.37865 17.0403 3.13143 16.3586 3.03988C15.677 2.94833 14.9834 3.0149 14.3316 3.23445C13.6798 3.454 13.0873 3.82062 12.6 4.30593C12.1733 4.72197 11.8341 5.21909 11.6023 5.76808C11.3704 6.31708 11.2507 6.90687 11.25 7.50281V8.07468C7.43438 7.08093 4.31251 4.00593 4.28438 3.96843C4.18632 3.87196 4.0636 3.80431 3.92967 3.77289C3.79574 3.74147 3.65574 3.7475 3.52501 3.79031C3.39468 3.83178 3.27798 3.90768 3.18722 4.00999C3.09646 4.1123 3.03502 4.23722 3.00938 4.37156C2.19376 8.89031 3.55313 11.9184 4.83751 13.6622C5.48171 14.5439 6.26358 15.3163 7.15313 15.9497C5.71876 17.5716 3.50626 18.4153 3.48751 18.4247C3.3817 18.4639 3.28612 18.5265 3.20788 18.6078C3.12963 18.6892 3.07074 18.7871 3.0356 18.8943C3.00046 19.0015 2.98996 19.1153 3.0049 19.2272C3.01984 19.339 3.05983 19.4461 3.12188 19.5403C3.19688 19.6528 3.47813 20.0184 4.16251 20.3653C5.01563 20.7872 6.14063 21.0028 7.50001 21.0028C14.1094 21.0028 19.6406 15.9122 20.2031 9.35906L23.0344 6.53718C23.1361 6.42874 23.2051 6.29372 23.2333 6.14772C23.2615 6.00172 23.2478 5.85072 23.1938 5.71218ZM18.9469 8.49656C18.8162 8.62614 18.7392 8.80022 18.7313 8.98406C18.3469 14.8809 13.4156 19.5028 7.50001 19.5028C6.50626 19.5028 5.81251 19.3716 5.32501 19.2122C6.40313 18.6309 7.90313 17.6184 8.87813 16.1653C8.93473 16.0774 8.9723 15.9786 8.98845 15.8752C9.0046 15.7719 8.99895 15.6663 8.97188 15.5653C8.94459 15.4633 8.89631 15.368 8.83012 15.2857C8.76394 15.2034 8.68131 15.1358 8.58751 15.0872C8.57813 15.0778 7.19063 14.3559 6.00001 12.7153C4.65001 10.8591 4.07813 8.59968 4.30313 5.99343C5.78438 7.21218 8.61563 9.19968 11.8781 9.74343C11.9859 9.76074 12.0961 9.75462 12.2012 9.7255C12.3064 9.69638 12.404 9.64494 12.4875 9.57468C12.5691 9.50327 12.6347 9.4154 12.6799 9.31683C12.7252 9.21827 12.7491 9.11125 12.75 9.00281V7.50281C12.7514 6.81468 12.9893 6.14795 13.4239 5.61439C13.8584 5.08084 14.4632 4.71289 15.1368 4.57223C15.8104 4.43158 16.5119 4.52677 17.1236 4.84185C17.7354 5.15693 18.2202 5.67274 18.4969 6.30281C18.5567 6.43683 18.654 6.55066 18.7771 6.63052C18.9003 6.71038 19.0439 6.75286 19.1906 6.75281H20.6906L18.9469 8.49656Z" fill="white"/>
</svg>
