<svg width="24" height="24" viewBox="0 0 24 24" fill="none" xmlns="http://www.w3.org/2000/svg">
<path d="M6.04533 18.1552C5.74533 17.9552 5.48733 17.7002 5.18533 17.3392C5.02858 17.1474 4.87324 16.9544 4.71933 16.7602C4.25633 16.1852 3.96433 15.9202 3.66233 15.8112C3.41263 15.7216 3.20877 15.5364 3.09559 15.2965C2.98241 15.0565 2.96919 14.7814 3.05883 14.5317C3.14848 14.282 3.33364 14.0782 3.57359 13.965C3.81355 13.8518 4.08863 13.8386 4.33833 13.9282C5.09033 14.1982 5.59933 14.6632 6.28533 15.5162C6.19133 15.3992 6.62533 15.9432 6.71833 16.0552C6.90833 16.2822 7.04833 16.4202 7.15833 16.4932C7.36233 16.6302 7.74533 16.6892 8.30833 16.6332C8.33133 16.2512 8.40233 15.8802 8.51033 15.5382C5.54233 14.8122 3.86233 12.8982 3.86233 9.14222C3.86233 7.90222 4.23233 6.78622 4.92033 5.85022C4.70233 4.95622 4.73533 3.87522 5.22233 2.65822C5.2776 2.52056 5.3628 2.39691 5.47177 2.29625C5.58073 2.19559 5.71073 2.12043 5.85233 2.07622C5.93333 2.05222 5.97933 2.04122 6.06033 2.02922C6.86333 1.90622 7.99733 2.19922 9.47533 3.12522C10.3561 2.9193 11.2578 2.81595 12.1623 2.81722C13.0743 2.81722 13.9803 2.92122 14.8463 3.12522C16.3233 2.19222 17.4593 1.89922 18.2683 2.02922C18.3533 2.04222 18.4253 2.05922 18.4863 2.07922C18.6252 2.125 18.7523 2.20065 18.8587 2.30086C18.9651 2.40107 19.0483 2.5234 19.1023 2.65922C19.5893 3.87522 19.6223 4.95622 19.4043 5.84922C20.0953 6.78522 20.4623 7.89422 20.4623 9.14222C20.4623 12.8992 18.7883 14.8072 15.8203 15.5342C15.9453 15.9492 16.0103 16.4132 16.0103 16.9142C16.0104 17.8196 16.0064 18.7249 15.9983 19.6302C16.2229 19.6792 16.4238 19.8041 16.5671 19.9838C16.7104 20.1635 16.7874 20.3871 16.7852 20.6169C16.7829 20.8468 16.7016 21.0689 16.5548 21.2458C16.408 21.4227 16.2048 21.5436 15.9793 21.5882C14.8403 21.8162 13.9963 21.0562 13.9963 20.0632L13.9983 19.6172L14.0033 18.9122C14.0083 18.2042 14.0103 17.5742 14.0103 16.9142C14.0103 16.2172 13.8273 15.7622 13.5853 15.5542C12.9243 14.9842 13.2593 13.8992 14.1253 13.8022C17.0923 13.4692 18.4623 12.3202 18.4623 9.14222C18.4623 8.18722 18.1503 7.39822 17.5493 6.73822C17.4227 6.59946 17.3377 6.42785 17.3041 6.24303C17.2705 6.05821 17.2897 5.86767 17.3593 5.69322C17.5253 5.27922 17.5963 4.73622 17.4553 4.07922L17.4453 4.08222C16.9543 4.22122 16.3353 4.52222 15.5873 5.03122C15.4667 5.11308 15.3297 5.16757 15.1858 5.19089C15.0419 5.21421 14.8946 5.20579 14.7543 5.16622C13.9102 4.93251 13.0382 4.81509 12.1623 4.81722C11.2723 4.81722 10.3903 4.93622 9.57033 5.16722C9.43055 5.20648 9.2839 5.21483 9.14057 5.19168C8.99723 5.16854 8.86066 5.11447 8.74033 5.03322C7.98833 4.52622 7.36633 4.22622 6.87233 4.08622C6.72833 4.73922 6.79933 5.28022 6.96433 5.69322C7.03414 5.86758 7.05344 6.05807 7.02001 6.24288C6.98659 6.4277 6.90179 6.59936 6.77533 6.73822C6.17833 7.39222 5.86233 8.19622 5.86233 9.14222C5.86233 12.3142 7.23333 13.4702 10.1843 13.8022C11.0493 13.8992 11.3853 14.9792 10.7283 15.5502C10.5363 15.7182 10.2993 16.2822 10.2993 16.9142V20.0642C10.2993 21.0502 9.46433 21.7892 8.33933 21.5922C8.1111 21.5521 7.90387 21.4341 7.75305 21.2581C7.60223 21.0822 7.5172 20.8593 7.51248 20.6277C7.50775 20.396 7.58363 20.1699 7.72715 19.9879C7.87067 19.806 8.07292 19.6796 8.29933 19.6302V18.6402C7.38933 18.7012 6.63733 18.5522 6.04533 18.1552Z" fill="white"/>
</svg>
