<svg width="24" height="24" viewBox="0 0 24 24" fill="none" xmlns="http://www.w3.org/2000/svg">
<path d="M15.8633 7.95428C15.0273 7.95414 14.2043 8.16064 13.4678 8.55532C13.4005 8.37858 13.2809 8.22644 13.125 8.11909C12.969 8.01174 12.784 7.95426 12.5945 7.95428H8.85876C8.61106 7.95428 8.37351 8.05246 8.19836 8.22721C8.02321 8.40197 7.92482 8.63898 7.92482 8.88612V20.0682C7.92482 20.3153 8.02321 20.5523 8.19836 20.7271C8.37351 20.9018 8.61106 21 8.85876 21H12.5945C12.8422 21 13.0798 20.9018 13.2549 20.7271C13.4301 20.5523 13.5285 20.3153 13.5285 20.0682V14.9431C13.5285 14.6959 13.6269 14.4589 13.802 14.2842C13.9772 14.1094 14.2147 14.0112 14.4624 14.0112C14.7101 14.0112 14.9477 14.1094 15.1228 14.2842C15.298 14.4589 15.3963 14.6959 15.3963 14.9431V20.0682C15.3963 20.3153 15.4947 20.5523 15.6699 20.7271C15.845 20.9018 16.0826 21 16.3303 21H20.0661C20.3138 21 20.5513 20.9018 20.7265 20.7271C20.9016 20.5523 21 20.3153 21 20.0682V13.0794C20.9983 11.7207 20.4565 10.4181 19.4936 9.4573C18.5307 8.49653 17.2251 7.95601 15.8633 7.95428ZM19.1321 19.1363H17.2642V14.9431C17.2642 14.2016 16.969 13.4906 16.4436 12.9663C15.9182 12.4421 15.2055 12.1475 14.4624 12.1475C13.7193 12.1475 13.0067 12.4421 12.4812 12.9663C11.9558 13.4906 11.6606 14.2016 11.6606 14.9431V19.1363H9.7927V9.81796H11.6606V10.473C11.6605 10.6662 11.7206 10.8546 11.8325 11.0122C11.9444 11.1698 12.1026 11.2888 12.2853 11.3527C12.4679 11.4167 12.666 11.4224 12.8521 11.3692C13.0381 11.3159 13.203 11.2063 13.3239 11.0554C13.7432 10.5244 14.3182 10.1372 14.9687 9.94799C15.6192 9.75876 16.3126 9.77691 16.9522 9.9999C17.5919 10.2229 18.1457 10.6396 18.5365 11.1918C18.9273 11.7441 19.1356 12.4043 19.1321 13.0803V19.1363ZM6.05693 7.95428H2.32117C2.07347 7.95428 1.83592 8.05246 1.66077 8.22721C1.48562 8.40197 1.38723 8.63898 1.38723 8.88612V20.0682C1.38723 20.3153 1.48562 20.5523 1.66077 20.7271C1.83592 20.9018 2.07347 21 2.32117 21H6.05693C6.30463 21 6.54218 20.9018 6.71733 20.7271C6.89248 20.5523 6.99087 20.3153 6.99087 20.0682V8.88612C6.99087 8.63898 6.89248 8.40197 6.71733 8.22721C6.54218 8.05246 6.30463 7.95428 6.05693 7.95428ZM5.12299 19.1363H3.25511V9.81796H5.12299V19.1363ZM4.20306 1.00558C3.79408 0.980714 3.3843 1.03916 2.99869 1.17737C2.61307 1.31557 2.25968 1.53064 1.96004 1.80947C1.66039 2.0883 1.42076 2.42506 1.25573 2.79926C1.0907 3.17345 1.00373 3.57724 1.00012 3.98604C0.996501 4.39484 1.07631 4.80009 1.23469 5.17713C1.39307 5.55417 1.62671 5.8951 1.92138 6.17917C2.21604 6.46324 2.56557 6.68449 2.94868 6.82947C3.33179 6.97444 3.74047 7.0401 4.14982 7.02245H4.17598C4.58519 7.04577 4.99487 6.98573 5.38008 6.84597C5.76528 6.70621 6.11793 6.48966 6.41654 6.20952C6.71515 5.92938 6.95347 5.59152 7.11698 5.21651C7.28048 4.8415 7.36576 4.43721 7.3676 4.02825C7.36944 3.6193 7.28781 3.21426 7.12768 2.8378C6.96756 2.46134 6.73229 2.12135 6.43621 1.83855C6.14014 1.55575 5.78945 1.33605 5.40552 1.19284C5.0216 1.04963 4.61247 0.985919 4.20306 1.00558ZM4.17598 5.15877H4.14982C3.98829 5.17845 3.82441 5.16343 3.66917 5.11473C3.51394 5.06603 3.37093 4.98476 3.24976 4.87639C3.12858 4.76802 3.03203 4.63504 2.96659 4.48639C2.90115 4.33773 2.86833 4.17683 2.87032 4.01448C2.87032 3.3184 3.39333 2.86925 4.20306 2.86925C4.36614 2.84784 4.53192 2.8615 4.68926 2.90932C4.84661 2.95714 4.99187 3.03801 5.11529 3.1465C5.23871 3.25499 5.33742 3.38858 5.4048 3.53829C5.47217 3.688 5.50665 3.85037 5.50591 4.01448C5.50591 4.70963 4.9829 5.15877 4.17504 5.15877H4.17598Z" fill="white"/>
</svg>
